<svg id="svg" version="1.1" width="900" height="551" xmlns="http://www.w3.org/2000/svg" xmlns:xlink="http://www.w3.org/1999/xlink" style="display: inlinr-block;">
    <g id="svgg">
        <path id="path0" d="M204.987 28.671 C 201.741 29.237,196.666 30.436,193.710 31.336 C 188.205 33.011,187.828 33.030,184.528 31.807 C 179.569 29.969,166.777 33.947,156.667 40.472 C 151.874 43.565,151.312 43.791,147.396 44.204 C 140.060 44.978,132.706 48.967,124.420 56.668 C 122.818 58.157,120.868 59.616,120.087 59.910 C 119.306 60.204,118.035 60.682,117.263 60.972 C 113.151 62.517,106.013 68.278,100.636 74.391 C 98.551 76.761,96.541 78.599,95.605 78.990 C 88.309 82.038,78.047 91.216,69.133 102.667 C 65.512 107.317,62.117 110.766,58.222 113.750 C 53.006 117.746,54.305 117.480,38.667 117.754 L 24.667 118.000 22.511 119.267 C 16.459 122.825,15.214 139.204,20.560 144.957 C 23.618 148.248,26.644 148.666,40.509 147.713 L 51.462 146.961 54.887 149.096 C 59.961 152.258,63.266 155.253,69.153 162.024 C 72.063 165.371,75.444 169.249,76.667 170.643 C 84.079 179.093,95.732 188.913,100.342 190.594 C 101.843 191.141,104.230 192.393,105.646 193.376 C 114.357 199.421,118.711 201.798,123.139 202.928 C 126.721 203.842,128.101 204.545,134.328 208.628 C 145.546 215.983,152.734 218.555,155.196 216.093 C 156.270 215.018,158.387 215.555,162.694 217.994 C 175.476 225.231,185.632 228.356,189.430 226.221 C 191.523 225.045,192.452 225.121,199.778 227.064 C 203.568 228.069,206.461 228.537,209.778 228.680 C 212.344 228.791,216.018 228.990,217.940 229.122 L 221.436 229.363 222.922 227.681 C 223.739 226.757,224.416 225.774,224.426 225.499 C 224.479 224.070,225.823 223.827,233.038 223.943 C 247.324 224.173,252.964 222.825,255.105 218.667 C 256.451 216.052,257.289 215.615,263.150 214.473 C 281.820 210.838,287.111 208.200,287.111 202.528 C 287.111 201.026,288.101 200.328,292.889 198.453 C 306.916 192.960,314.579 187.142,314.086 182.361 C 313.742 179.028,313.759 179.004,318.601 176.140 C 327.931 170.623,330.496 167.967,330.301 164.025 C 330.144 160.863,330.930 159.761,334.735 157.814 C 340.385 154.922,346.222 148.883,346.222 145.929 C 346.222 145.386,346.425 144.816,346.674 144.662 C 346.922 144.509,347.019 144.210,346.889 143.999 C 346.758 143.788,347.905 142.952,349.437 142.141 C 356.775 138.256,365.204 127.026,365.670 120.512 C 365.929 116.889,364.851 115.613,360.526 114.425 C 347.553 110.860,344.558 108.898,344.398 103.858 C 344.296 100.614,341.943 96.980,339.429 96.182 C 338.076 95.753,331.537 91.632,330.399 90.492 C 328.896 88.987,328.444 87.768,328.444 85.225 C 328.444 81.874,326.092 79.647,317.307 74.680 C 312.129 71.753,311.111 70.866,311.111 69.278 C 311.111 66.872,310.162 63.654,309.197 62.788 C 308.374 62.049,298.309 57.333,297.555 57.333 C 297.417 57.333,296.561 57.001,295.652 56.596 C 294.744 56.190,293.850 55.815,293.667 55.762 C 293.483 55.710,293.233 55.617,293.111 55.556 C 292.989 55.494,292.689 55.394,292.444 55.333 C 292.200 55.272,291.950 55.183,291.889 55.136 C 291.828 55.089,291.264 54.981,290.636 54.897 C 284.668 54.099,280.229 51.706,279.743 49.025 C 279.370 46.964,278.587 45.351,277.490 44.382 C 275.057 42.233,263.282 39.579,256.111 39.564 C 252.220 39.555,250.667 38.820,250.667 36.987 C 250.667 32.736,243.464 30.667,228.667 30.667 C 222.327 30.667,222.103 30.634,218.161 29.111 C 213.504 27.313,212.892 27.292,204.987 28.671 " stroke="none" fill="#c32025" fill-rule="evenodd"></path><path id="path1" d="" stroke="none" fill="darkorange" fill-rule="evenodd"></path>
    </g>
</svg>